# xmcd
# Copyright (C) 1995-1998 Ti Kan
#
# Track frame offsets:
#       150
#       17617
#       32255
#       46305
#       71256
#       89182
#       107036
#       128396
#       152856
#       167405
#       188273
#       206015
#
# Disc length: 2958 seconds
#
# Revision: 0
# Processed by: cddbd v1.4b42PL1 Copyright (c) Steve Scherf et al.
# Submitted via: CD-Transfer v1.0
#
DISCID=8a0b8c0c
DTITLE=Hamschter - Wild and Lut
DYEAR=1996
DGENRE=
TTITLE0=Jack
TTITLE1=Spinnenetz
TTITLE2=Wild U Lut
TTITLE3=Nume Du
TTITLE4=Vollmond
TTITLE5=Frage Di
TTITLE6=Hetzjagd
TTITLE7=Was Söll's
TTITLE8=Jole
TTITLE9=Ikarus
TTITLE10=Sigel
TTITLE11=Highway
EXTD=
EXTT0=
EXTT1=
EXTT2=
EXTT3=
EXTT4=
EXTT5=
EXTT6=
EXTT7=
EXTT8=
EXTT9=
EXTT10=
EXTT11=
PLAYORDER=
